<svg width="92" height="24" viewBox="0 0 92 24" fill="none" xmlns="http://www.w3.org/2000/svg">
<path d="M86.2418 23.5812V21.2605C86.1371 21.4932 85.8696 21.8305 85.4392 22.2726C85.0204 22.7146 84.4621 23.1159 83.7641 23.4765C83.0662 23.8255 82.2519 24 81.3213 24C79.9254 24 78.704 23.6626 77.6571 22.988C76.6101 22.3016 75.7959 21.3885 75.2142 20.2485C74.6326 19.0969 74.3418 17.8231 74.3418 16.4272C74.3418 15.0313 74.6326 13.7634 75.2142 12.6234C75.7959 11.4718 76.6101 10.5528 77.6571 9.86651C78.704 9.1802 79.9254 8.83704 81.3213 8.83704C82.217 8.83704 83.0022 8.98244 83.6769 9.27325C84.3516 9.55243 84.8983 9.88978 85.317 10.2853C85.7358 10.6692 86.0266 11.0239 86.1895 11.3497V9.25581H91.459V23.5812H86.2418ZM79.5415 16.4272C79.5415 17.0787 79.6927 17.6661 79.9952 18.1896C80.2976 18.7014 80.6989 19.1027 81.1991 19.3935C81.711 19.6843 82.2752 19.8297 82.8917 19.8297C83.5315 19.8297 84.0956 19.6843 84.5842 19.3935C85.0728 19.1027 85.4566 18.7014 85.7358 18.1896C86.0266 17.6661 86.172 17.0787 86.172 16.4272C86.172 15.7758 86.0266 15.1942 85.7358 14.6824C85.4566 14.1589 85.0728 13.7518 84.5842 13.4609C84.0956 13.1585 83.5315 13.0073 82.8917 13.0073C82.2752 13.0073 81.711 13.1585 81.1991 13.4609C80.6989 13.7518 80.2976 14.1589 79.9952 14.6824C79.6927 15.1942 79.5415 15.7758 79.5415 16.4272Z" fill="black"/>
<path d="M67.0601 23.5655V9.24011H72.3645V23.5655H67.0601Z" fill="black"/>
<path d="M53.3047 9.25132H55.7475V3.37109H60.9996V9.25132H64.2101V13.6135H60.9996V17.6093C60.9996 18.2025 61.0868 18.6853 61.2613 19.0575C61.4358 19.4181 61.7557 19.5984 62.221 19.5984C62.5351 19.5984 62.8026 19.5286 63.0236 19.389C63.2446 19.2494 63.3784 19.1564 63.4249 19.1098L65.2396 22.8788C65.1582 22.9486 64.9023 23.0765 64.4719 23.2626C64.0531 23.4488 63.518 23.6174 62.8666 23.7687C62.2152 23.9199 61.4881 23.9955 60.6855 23.9955C59.2547 23.9955 58.074 23.5942 57.1434 22.7915C56.2128 21.9773 55.7475 20.7268 55.7475 19.0401V13.6135H53.3047V9.25132Z" fill="black"/>
<path d="M46.0054 8.83704C46.9476 8.83704 47.8084 8.91846 48.5878 9.08132C49.3672 9.23254 50.0186 9.40703 50.5421 9.60478C51.0772 9.80253 51.4203 9.96539 51.5716 10.0933L49.8441 13.2167C49.6231 13.0538 49.2102 12.8444 48.6053 12.5885C48.012 12.3326 47.349 12.2046 46.6161 12.2046C46.0578 12.2046 45.5866 12.2919 45.2028 12.4664C44.8189 12.6292 44.627 12.891 44.627 13.2516C44.627 13.6122 44.8363 13.903 45.2551 14.124C45.6855 14.3334 46.302 14.5195 47.1047 14.6824C47.8026 14.8219 48.5122 15.043 49.2334 15.3454C49.9546 15.6479 50.5537 16.0957 51.0306 16.689C51.5192 17.2706 51.7635 18.05 51.7635 19.0271C51.7635 20.0275 51.5483 20.8534 51.1179 21.5048C50.6875 22.1562 50.1175 22.6622 49.4079 23.0229C48.6983 23.3835 47.9306 23.6336 47.1047 23.7731C46.2788 23.9244 45.4761 24 44.6968 24C43.6033 24 42.6494 23.9011 41.8352 23.7034C41.0325 23.5056 40.3811 23.2788 39.8809 23.0229C39.3807 22.7669 39.0317 22.5634 38.834 22.4121L40.544 18.9224C40.8464 19.1783 41.3408 19.4691 42.0271 19.7948C42.7134 20.1089 43.4404 20.266 44.2082 20.266C44.9527 20.266 45.5285 20.1554 45.9356 19.9344C46.3428 19.7134 46.5463 19.4226 46.5463 19.062C46.5463 18.7712 46.4474 18.5385 46.2497 18.364C46.0519 18.1896 45.7728 18.0383 45.4122 17.9104C45.0515 17.7824 44.6153 17.6661 44.1035 17.5614C43.6382 17.4683 43.1438 17.3229 42.6204 17.1252C42.0969 16.9274 41.6025 16.6599 41.1372 16.3225C40.6719 15.9736 40.2939 15.5373 40.0031 15.0139C39.7122 14.4904 39.5668 13.8565 39.5668 13.112C39.5668 12.1581 39.8751 11.3671 40.4916 10.7389C41.1081 10.1108 41.905 9.63968 42.8821 9.3256C43.8592 8.99989 44.9003 8.83704 46.0054 8.83704Z" fill="black"/>
<path d="M26.8759 17.544C26.9108 18.0558 27.0737 18.5094 27.3645 18.905C27.6553 19.3005 28.0566 19.6145 28.5685 19.8472C29.0919 20.0682 29.7085 20.1787 30.418 20.1787C31.0927 20.1787 31.6976 20.1089 32.2327 19.9693C32.7794 19.8297 33.2505 19.6552 33.6461 19.4459C34.0532 19.2365 34.3673 19.0213 34.5883 18.8003L36.6472 22.0806C36.3564 22.3947 35.9435 22.703 35.4084 23.0054C34.8849 23.2962 34.1928 23.5347 33.332 23.7208C32.4712 23.9069 31.3835 24 30.0691 24C28.487 24 27.0795 23.7034 25.8465 23.1101C24.6134 22.5168 23.6421 21.6444 22.9325 20.4928C22.223 19.3412 21.8682 17.9336 21.8682 16.2702C21.8682 14.8743 22.1706 13.618 22.7755 12.5013C23.392 11.3729 24.2819 10.483 25.4452 9.83161C26.6084 9.16856 28.0101 8.83704 29.6503 8.83704C31.209 8.83704 32.5584 9.12203 33.6984 9.69202C34.85 10.262 35.7341 11.1112 36.3506 12.2395C36.9788 13.3563 37.2928 14.7522 37.2928 16.4272C37.2928 16.5203 37.287 16.7064 37.2754 16.9856C37.2754 17.2648 37.2638 17.4509 37.2405 17.544H26.8759ZM32.3025 14.7696C32.2909 14.3974 32.192 14.0309 32.0059 13.6703C31.8198 13.2981 31.5406 12.9956 31.1683 12.763C30.7961 12.5187 30.3192 12.3966 29.7375 12.3966C29.1559 12.3966 28.6615 12.5129 28.2544 12.7456C27.8589 12.9666 27.5564 13.2574 27.3471 13.618C27.1377 13.9786 27.0214 14.3625 26.9981 14.7696H32.3025Z" fill="black"/>
<path d="M3.20996 23.5701L3.20996 3.37109H8.51437L8.51438 11.3385C8.61907 11.0128 8.88662 10.658 9.31702 10.2741C9.75905 9.87863 10.3349 9.54129 11.0444 9.26211C11.7657 8.9713 12.5799 8.82589 13.4873 8.82589C14.8832 8.82589 16.0929 9.16905 17.1166 9.85537C18.1403 10.5417 18.9313 11.4606 19.4896 12.6123C20.048 13.7522 20.3272 15.0202 20.3272 16.4161C20.3272 17.812 20.048 19.0857 19.4896 20.2374C18.9313 21.3773 18.1403 22.2905 17.1166 22.9768C16.0929 23.6515 14.8832 23.9888 13.4873 23.9888C12.7195 23.9888 11.9925 23.8492 11.3062 23.5701C10.6315 23.3025 10.044 22.9594 9.54385 22.5406C9.05529 22.1102 8.69468 21.6798 8.46203 21.2494V23.5701H3.20996ZM15.1274 16.4161C15.1274 15.7647 14.982 15.183 14.6912 14.6712C14.412 14.1478 14.0224 13.7406 13.5222 13.4498C13.0336 13.1474 12.4811 12.9961 11.8645 12.9961C11.2247 12.9961 10.6489 13.1474 10.1371 13.4498C9.63691 13.7406 9.24141 14.1478 8.95059 14.6712C8.65978 15.183 8.51438 15.7647 8.51438 16.4161C8.51438 17.0675 8.65978 17.6549 8.95059 18.1784C9.24141 18.6902 9.63691 19.0916 10.1371 19.3824C10.6489 19.6732 11.2247 19.8186 11.8645 19.8186C12.4811 19.8186 13.0336 19.6732 13.5222 19.3824C14.0224 19.0916 14.412 18.6902 14.6912 18.1784C14.982 17.6549 15.1274 17.0675 15.1274 16.4161Z" fill="black"/>
<rect y="3.37109" width="8.49995" height="4.33425" fill="black"/>
<circle cx="69.709" cy="3.37108" r="3.37108" fill="#6184FF"/>
</svg>
