<svg width="92" height="24" viewBox="0 0 92 24" fill="none" xmlns="http://www.w3.org/2000/svg">
<path d="M86.2418 23.5811V21.2604C86.1371 21.4931 85.8696 21.8304 85.4392 22.2724C85.0204 22.7145 84.4621 23.1158 83.7641 23.4764C83.0662 23.8254 82.2519 23.9999 81.3213 23.9999C79.9254 23.9999 78.704 23.6625 77.6571 22.9878C76.6101 22.3015 75.7959 21.3884 75.2142 20.2484C74.6326 19.0968 74.3418 17.823 74.3418 16.4271C74.3418 15.0312 74.6326 13.7633 75.2142 12.6233C75.7959 11.4717 76.6101 10.5527 77.6571 9.86639C78.704 9.18007 79.9254 8.83691 81.3213 8.83691C82.217 8.83691 83.0022 8.98232 83.6769 9.27313C84.3516 9.55231 84.8983 9.88965 85.317 10.2852C85.7358 10.669 86.0266 11.0238 86.1895 11.3495V9.25568H91.459V23.5811H86.2418ZM79.5415 16.4271C79.5415 17.0785 79.6927 17.666 79.9952 18.1894C80.2976 18.7013 80.6989 19.1026 81.1991 19.3934C81.711 19.6842 82.2752 19.8296 82.8917 19.8296C83.5315 19.8296 84.0956 19.6842 84.5842 19.3934C85.0728 19.1026 85.4566 18.7013 85.7358 18.1894C86.0266 17.666 86.172 17.0785 86.172 16.4271C86.172 15.7757 86.0266 15.1941 85.7358 14.6822C85.4566 14.1588 85.0728 13.7516 84.5842 13.4608C84.0956 13.1584 83.5315 13.0072 82.8917 13.0072C82.2752 13.0072 81.711 13.1584 81.1991 13.4608C80.6989 13.7516 80.2976 14.1588 79.9952 14.6822C79.6927 15.1941 79.5415 15.7757 79.5415 16.4271Z" fill="black"/>
<path d="M67.0601 23.5656V9.24023H72.3645V23.5656H67.0601Z" fill="black"/>
<path d="M53.3047 9.25132H55.7475V3.37109H60.9996V9.25132H64.2101V13.6135H60.9996V17.6093C60.9996 18.2025 61.0868 18.6853 61.2613 19.0575C61.4358 19.4181 61.7557 19.5984 62.221 19.5984C62.5351 19.5984 62.8026 19.5286 63.0236 19.389C63.2446 19.2494 63.3784 19.1564 63.4249 19.1098L65.2396 22.8788C65.1582 22.9486 64.9023 23.0765 64.4719 23.2626C64.0531 23.4488 63.518 23.6174 62.8666 23.7687C62.2152 23.9199 61.4881 23.9955 60.6855 23.9955C59.2547 23.9955 58.074 23.5942 57.1434 22.7915C56.2128 21.9773 55.7475 20.7268 55.7475 19.0401V13.6135H53.3047V9.25132Z" fill="black"/>
<path d="M46.0054 8.83691C46.9476 8.83691 47.8084 8.91834 48.5878 9.0812C49.3672 9.23242 50.0186 9.40691 50.5421 9.60466C51.0772 9.80241 51.4203 9.96527 51.5716 10.0932L49.8441 13.2165C49.6231 13.0537 49.2102 12.8443 48.6053 12.5884C48.012 12.3325 47.349 12.2045 46.6161 12.2045C46.0578 12.2045 45.5866 12.2918 45.2028 12.4662C44.8189 12.6291 44.627 12.8908 44.627 13.2514C44.627 13.612 44.8363 13.9029 45.2551 14.1239C45.6855 14.3333 46.302 14.5194 47.1047 14.6822C47.8026 14.8218 48.5122 15.0428 49.2334 15.3453C49.9546 15.6477 50.5537 16.0956 51.0306 16.6888C51.5192 17.2705 51.7635 18.0498 51.7635 19.027C51.7635 20.0274 51.5483 20.8533 51.1179 21.5047C50.6875 22.1561 50.1175 22.6621 49.4079 23.0227C48.6983 23.3833 47.9306 23.6334 47.1047 23.773C46.2788 23.9242 45.4761 23.9999 44.6968 23.9999C43.6033 23.9999 42.6494 23.901 41.8352 23.7032C41.0325 23.5055 40.3811 23.2786 39.8809 23.0227C39.3807 22.7668 39.0317 22.5632 38.834 22.412L40.544 18.9223C40.8464 19.1782 41.3408 19.469 42.0271 19.7947C42.7134 20.1088 43.4404 20.2658 44.2082 20.2658C44.9527 20.2658 45.5285 20.1553 45.9356 19.9343C46.3428 19.7133 46.5463 19.4225 46.5463 19.0619C46.5463 18.7711 46.4474 18.5384 46.2497 18.3639C46.0519 18.1894 45.7728 18.0382 45.4122 17.9103C45.0515 17.7823 44.6153 17.666 44.1035 17.5613C43.6382 17.4682 43.1438 17.3228 42.6204 17.1251C42.0969 16.9273 41.6025 16.6598 41.1372 16.3224C40.6719 15.9734 40.2939 15.5372 40.0031 15.0138C39.7122 14.4903 39.5668 13.8563 39.5668 13.1119C39.5668 12.158 39.8751 11.367 40.4916 10.7388C41.1081 10.1107 41.905 9.63956 42.8821 9.32548C43.8592 8.99977 44.9003 8.83691 46.0054 8.83691Z" fill="black"/>
<path d="M26.8759 17.5438C26.9108 18.0557 27.0737 18.5093 27.3645 18.9048C27.6553 19.3003 28.0566 19.6144 28.5685 19.8471C29.0919 20.0681 29.7085 20.1786 30.418 20.1786C31.0927 20.1786 31.6976 20.1088 32.2327 19.9692C32.7794 19.8296 33.2505 19.6551 33.6461 19.4457C34.0532 19.2364 34.3673 19.0212 34.5883 18.8001L36.6472 22.0805C36.3564 22.3946 35.9435 22.7028 35.4084 23.0053C34.8849 23.2961 34.1928 23.5346 33.332 23.7207C32.4712 23.9068 31.3835 23.9999 30.0691 23.9999C28.487 23.9999 27.0795 23.7032 25.8465 23.11C24.6134 22.5167 23.6421 21.6443 22.9325 20.4927C22.223 19.341 21.8682 17.9335 21.8682 16.2701C21.8682 14.8742 22.1706 13.6179 22.7755 12.5011C23.392 11.3728 24.2819 10.4829 25.4452 9.83149C26.6084 9.16844 28.0101 8.83691 29.6503 8.83691C31.209 8.83691 32.5584 9.12191 33.6984 9.6919C34.85 10.2619 35.7341 11.1111 36.3506 12.2394C36.9788 13.3561 37.2928 14.752 37.2928 16.4271C37.2928 16.5202 37.287 16.7063 37.2754 16.9855C37.2754 17.2646 37.2638 17.4508 37.2405 17.5438H26.8759ZM32.3025 14.7695C32.2909 14.3972 32.192 14.0308 32.0059 13.6702C31.8198 13.298 31.5406 12.9955 31.1683 12.7629C30.7961 12.5186 30.3192 12.3965 29.7375 12.3965C29.1559 12.3965 28.6615 12.5128 28.2544 12.7454C27.8589 12.9664 27.5564 13.2573 27.3471 13.6179C27.1377 13.9785 27.0214 14.3623 26.9981 14.7695H32.3025Z" fill="black"/>
<path d="M3.20996 23.5701L3.20996 3.37109H8.51437L8.51438 11.3385C8.61907 11.0128 8.88662 10.658 9.31702 10.2741C9.75905 9.87863 10.3349 9.54129 11.0444 9.26211C11.7657 8.9713 12.5799 8.82589 13.4873 8.82589C14.8832 8.82589 16.0929 9.16905 17.1166 9.85537C18.1403 10.5417 18.9313 11.4606 19.4896 12.6123C20.048 13.7522 20.3272 15.0202 20.3272 16.4161C20.3272 17.812 20.048 19.0857 19.4896 20.2374C18.9313 21.3773 18.1403 22.2905 17.1166 22.9768C16.0929 23.6515 14.8832 23.9888 13.4873 23.9888C12.7195 23.9888 11.9925 23.8492 11.3062 23.5701C10.6315 23.3025 10.044 22.9594 9.54385 22.5406C9.05529 22.1102 8.69468 21.6798 8.46203 21.2494V23.5701H3.20996ZM15.1274 16.4161C15.1274 15.7647 14.982 15.183 14.6912 14.6712C14.412 14.1478 14.0224 13.7406 13.5222 13.4498C13.0336 13.1474 12.4811 12.9961 11.8645 12.9961C11.2247 12.9961 10.6489 13.1474 10.1371 13.4498C9.63691 13.7406 9.24141 14.1478 8.95059 14.6712C8.65978 15.183 8.51438 15.7647 8.51438 16.4161C8.51438 17.0675 8.65978 17.6549 8.95059 18.1784C9.24141 18.6902 9.63691 19.0916 10.1371 19.3824C10.6489 19.6732 11.2247 19.8186 11.8645 19.8186C12.4811 19.8186 13.0336 19.6732 13.5222 19.3824C14.0224 19.0916 14.412 18.6902 14.6912 18.1784C14.982 17.6549 15.1274 17.0675 15.1274 16.4161Z" fill="black"/>
<rect y="3.37109" width="8.49995" height="4.33425" fill="black"/>
<circle cx="69.709" cy="3.37108" r="3.37108" fill="#6184FF"/>
</svg>
